<svg width="28" height="16" viewBox="0 0 28 16" fill="none" xmlns="http://www.w3.org/2000/svg">
<path d="M12.2955 0.454545V15H10.5909L2.66477 3.57955H2.52273V15H0.761364V0.454545H2.46591L10.4205 11.9034H10.5625V0.454545H12.2955Z" fill="white"/>
<path d="M25.7631 5C25.6069 4.52178 25.4009 4.09328 25.1452 3.71449C24.8943 3.33097 24.5936 3.00426 24.2433 2.73438C23.8976 2.46449 23.5046 2.25852 23.0643 2.11648C22.6239 1.97443 22.141 1.90341 21.6154 1.90341C20.7537 1.90341 19.9701 2.12595 19.2646 2.57102C18.5591 3.0161 17.998 3.67188 17.5813 4.53835C17.1647 5.40483 16.9563 6.4678 16.9563 7.72727C16.9563 8.98674 17.167 10.0497 17.5884 10.9162C18.0098 11.7827 18.5804 12.4384 19.3001 12.8835C20.0198 13.3286 20.8294 13.5511 21.729 13.5511C22.5624 13.5511 23.2963 13.3736 23.9308 13.0185C24.57 12.6586 25.0671 12.152 25.4222 11.4986C25.7821 10.8404 25.962 10.0663 25.962 9.17614L26.5018 9.28977H22.1268V7.72727H27.6665V9.28977C27.6665 10.4877 27.4109 11.5294 26.8995 12.4148C26.3929 13.3002 25.6921 13.9867 24.7972 14.4744C23.9071 14.9574 22.8844 15.1989 21.729 15.1989C20.4412 15.1989 19.3095 14.8958 18.3342 14.2898C17.3635 13.6837 16.6059 12.822 16.0614 11.7045C15.5217 10.5871 15.2518 9.26136 15.2518 7.72727C15.2518 6.5767 15.4057 5.54214 15.7134 4.62358C16.0259 3.70028 16.4663 2.9143 17.0344 2.26562C17.6026 1.61695 18.275 1.11979 19.0515 0.774148C19.828 0.428503 20.6826 0.255681 21.6154 0.255681C22.3825 0.255681 23.0974 0.371685 23.7603 0.603693C24.4279 0.830965 25.0221 1.1553 25.543 1.5767C26.0685 1.99337 26.5065 2.4929 26.8569 3.07528C27.2073 3.65294 27.4487 4.29451 27.5813 5H25.7631Z" fill="#1DE5CD"/>
</svg>
